<svg width="25" height="170" viewBox="0 0 25 170" fill="none" xmlns="http://www.w3.org/2000/svg">
<path d="M14.7071 169.707C14.3166 170.098 13.6834 170.098 13.2929 169.707L6.92893 163.343C6.53841 162.953 6.53841 162.319 6.92893 161.929C7.31946 161.538 7.95262 161.538 8.34315 161.929L14 167.586L19.6569 161.929C20.0474 161.538 20.6805 161.538 21.0711 161.929C21.4616 162.319 21.4616 162.953 21.0711 163.343L14.7071 169.707ZM15 129L15 169H13L13 129H15Z" fill="white"/>
<path d="M15.7578 104.342C15.7578 103.299 15.2344 102.574 14.1875 102.168L14.7559 100.662C15.5527 100.986 16.1465 101.463 16.5371 102.092C16.9238 102.717 17.1172 103.467 17.1172 104.342C17.1172 105.67 16.7422 106.697 15.9922 107.424C15.2383 108.146 14.1855 108.508 12.834 108.508C11.4785 108.508 10.4375 108.158 9.71094 107.459C8.98438 106.76 8.62109 105.746 8.62109 104.418C8.62109 103.449 8.81641 102.66 9.20703 102.051C9.59375 101.441 10.1641 101.014 10.918 100.768L11.334 102.291C10.9199 102.42 10.5918 102.674 10.3496 103.053C10.1035 103.428 9.98047 103.871 9.98047 104.383C9.98047 105.164 10.2227 105.758 10.707 106.164C11.1914 106.566 11.9004 106.768 12.834 106.768C13.7832 106.768 14.5078 106.561 15.0078 106.146C15.5078 105.729 15.7578 105.127 15.7578 104.342ZM8.74414 98.9254V97.1969H12.2539C12.2539 96.9937 12.1348 96.777 11.8965 96.5465C11.6543 96.3121 11.2363 96.0094 10.6426 95.6383L8.74414 94.4312V92.6734L11.1172 94.2262C11.8555 94.7105 12.293 95.0445 12.4297 95.2281L17 92.3863V94.2672L13.25 96.4586C13.3008 96.5367 13.3477 96.652 13.3906 96.8043C13.4336 96.9566 13.4551 97.0895 13.4551 97.2027H17V98.9254H8.74414ZM11.3574 84.2102C11.8887 84.2102 12.3633 84.3312 12.7813 84.5734C13.1992 84.8156 13.5234 85.1633 13.7539 85.6164C13.9805 86.0656 14.0938 86.6008 14.0938 87.2219V89.2727H17V91.0012H8.74414V87.2922C8.74414 86.3039 8.97266 85.5441 9.42969 85.0129C9.88281 84.4777 10.5254 84.2102 11.3574 84.2102ZM11.3867 85.9504C10.5195 85.9504 10.0859 86.4621 10.0859 87.4855V89.2727H12.7637V87.4387C12.7637 86.9621 12.6465 86.5949 12.4121 86.3371C12.1738 86.0793 11.832 85.9504 11.3867 85.9504ZM12.834 74.534C13.6934 74.534 14.4492 74.7039 15.1016 75.0438C15.7539 75.3836 16.2539 75.8699 16.6016 76.5027C16.9453 77.1355 17.1172 77.8738 17.1172 78.7176C17.1172 80.0145 16.7363 81.032 15.9746 81.7703C15.209 82.5047 14.1621 82.8719 12.834 82.8719C11.5098 82.8719 10.4766 82.5047 9.73438 81.7703C8.99219 81.0359 8.62109 80.0145 8.62109 78.7059C8.62109 77.3973 8.99609 76.3758 9.74609 75.6414C10.4961 74.9031 11.5254 74.534 12.834 74.534ZM12.834 76.2977C11.9434 76.2977 11.2461 76.5086 10.7422 76.9305C10.2344 77.3523 9.98047 77.9441 9.98047 78.7059C9.98047 79.4793 10.2324 80.077 10.7363 80.4988C11.2363 80.9207 11.9355 81.1316 12.834 81.1316C13.7402 81.1316 14.4551 80.9168 14.9785 80.4871C15.498 80.0535 15.7578 79.4637 15.7578 78.7176C15.7578 77.9441 15.5039 77.3484 14.9961 76.9305C14.4883 76.5086 13.7676 76.2977 12.834 76.2977ZM10.1738 67.7758V70.1605L12.2129 70.4477C13.6816 70.6586 14.7305 70.8637 15.3594 71.0629C15.9844 71.2621 16.4297 71.5141 16.6953 71.8187C16.9609 72.1234 17.0938 72.5512 17.0938 73.102C17.0938 73.3715 17.0605 73.5648 16.9941 73.682H15.5469C15.5742 73.6273 15.5879 73.5434 15.5879 73.4301C15.5879 73.2074 15.4512 73.0238 15.1777 72.8793C14.9043 72.7348 14.4609 72.6 13.8477 72.475C13.2305 72.3461 12.4531 72.2152 11.5156 72.0824L8.74414 71.6898V66.1117H17V67.7758H10.1738ZM14.4746 56.5059C14.9746 56.5059 15.416 56.627 15.7988 56.8691C16.1777 57.1074 16.4727 57.459 16.6836 57.9238C16.8945 58.3848 17 58.9297 17 59.5586V63.9004H8.74414V62.1719H12.0313V59.3711C12.0313 58.4531 12.2461 57.7461 12.6758 57.25C13.1016 56.7539 13.7012 56.5059 14.4746 56.5059ZM14.498 58.252C14.1348 58.252 13.8555 58.3887 13.6602 58.6621C13.4609 58.9316 13.3613 59.3359 13.3613 59.875V62.1719H15.6523V59.8398C15.6523 58.7812 15.2676 58.252 14.498 58.252ZM10.0801 52.1676H17V53.8961H10.0801V56.5621H8.74414V49.4957H10.0801V52.1676ZM17 47.9582H8.74414V41.466H10.0801V46.2297H12.1543V41.8234H13.4902V46.2297H15.6641V41.2258H17V47.9582ZM14.6445 28.0961C15.3945 28.0961 15.9746 28.3773 16.3848 28.9398C16.7949 29.5023 17 30.2836 17 31.2836V35.4145H8.74414V31.6352C8.74414 30.6273 8.91992 29.8656 9.27148 29.35C9.61914 28.8305 10.1348 28.5707 10.8184 28.5707C11.2871 28.5707 11.6836 28.7016 12.0078 28.9633C12.3281 29.2211 12.5449 29.6156 12.6582 30.1469C12.7363 29.4789 12.9473 28.9711 13.291 28.6234C13.6309 28.2719 14.082 28.0961 14.6445 28.0961ZM11.0527 30.3109C10.6816 30.3109 10.418 30.4301 10.2617 30.6684C10.1055 30.9027 10.0273 31.2523 10.0273 31.7172V33.6859H12.0723V31.7055C12.0723 31.2172 11.9883 30.8637 11.8203 30.6449C11.6484 30.4223 11.3926 30.3109 11.0527 30.3109ZM14.5098 29.8305C13.7363 29.8305 13.3496 30.3852 13.3496 31.4945V33.6859H15.7168V31.4301C15.7168 30.8754 15.6172 30.4711 15.418 30.2172C15.2148 29.9594 14.9121 29.8305 14.5098 29.8305ZM17 20.8164H13.4609V24.4141H17V26.1426H8.74414V24.4141H12.0313V20.8164H8.74414V19.0879H17V20.8164ZM17 16.8766H8.74414V15.3414H13.543C13.9609 15.3414 14.498 15.357 15.1543 15.3883L8.74414 11.7965V9.85117H17V11.3863H12.1309C11.8262 11.3863 11.3301 11.3707 10.6426 11.3395L17 14.9078V16.8766ZM17.1172 4.71016C17.1172 5.63203 16.9336 6.37422 16.5664 6.93672C16.1953 7.49532 15.6211 7.90938 14.8438 8.17891L14.2988 6.63203C15.2871 6.27266 15.7813 5.63203 15.7813 4.71016C15.7813 4.20625 15.6777 3.82344 15.4707 3.56172C15.2598 3.3 14.9648 3.16914 14.5859 3.16914C14.1914 3.16914 13.9082 3.32539 13.7363 3.63789C13.5605 3.94649 13.4727 4.43086 13.4727 5.09102V5.43672H12.1426V5.09102C12.1426 4.50117 12.0488 4.06563 11.8613 3.78438C11.6738 3.50313 11.3848 3.3625 10.9941 3.3625C10.6387 3.3625 10.3672 3.4836 10.1797 3.72578C9.99219 3.96407 9.89844 4.29414 9.89844 4.71602C9.89844 5.54414 10.3809 6.10664 11.3457 6.40352L10.9883 7.97383C10.1875 7.7043 9.59375 7.3 9.20703 6.76094C8.82031 6.21797 8.62695 5.52657 8.62695 4.68672C8.62695 3.78438 8.82227 3.05977 9.21289 2.51289C9.59961 1.96602 10.1211 1.69258 10.7773 1.69258C11.2813 1.69258 11.7012 1.83125 12.0371 2.1086C12.373 2.38594 12.6094 2.79414 12.7461 3.33321C12.832 2.74336 13.043 2.28828 13.3789 1.96797C13.7148 1.64375 14.1406 1.48164 14.6563 1.48164C15.4063 1.48164 16.0039 1.77266 16.4492 2.35469C16.8945 2.93672 17.1172 3.72188 17.1172 4.71016Z" fill="white"/>
</svg>
